<?xml version="1.0" standalone="no"?>
<!DOCTYPE svg PUBLIC "-//W3C//DTD SVG 20010904//EN"
 "http://www.w3.org/TR/2001/REC-SVG-20010904/DTD/svg10.dtd">
<svg version="1.0" xmlns="http://www.w3.org/2000/svg"
 width="228.000000pt" height="228.000000pt" viewBox="0 0 228.000000 228.000000"
 preserveAspectRatio="xMidYMid meet">
<metadata>
Created by potrace 1.14, written by Peter Selinger 2001-2017
</metadata>
<g transform="translate(0.000000,228.000000) scale(0.100000,-0.100000)"
fill="#000000" stroke="none">
<path d="M1057 1899 c3 -10 9 -22 14 -25 16 -9 10 -66 -8 -80 -27 -20 -3 -36
47 -32 32 2 44 8 46 21 1 9 -4 17 -12 17 -9 0 -14 11 -14 34 0 26 5 35 22 39
30 8 33 4 34 -61 l0 -57 37 0 c32 0 37 3 37 22 0 13 -4 23 -10 23 -5 0 -10 17
-10 38 0 67 -18 80 -109 80 -74 1 -79 0 -74 -19z"/>
<path d="M1451 1898 c-96 -47 -90 -179 11 -217 33 -12 98 4 98 24 0 19 -33 36
-49 26 -20 -13 -50 -1 -67 24 -13 21 -13 27 0 59 17 41 50 58 84 43 12 -6 22
-14 22 -18 0 -13 30 -39 45 -39 29 0 26 37 -5 70 -41 44 -88 53 -139 28z"/>
<path d="M854 1867 c-28 -21 -22 -52 6 -37 23 12 73 13 66 1 -3 -4 -19 -11
-36 -15 -50 -10 -61 -73 -17 -94 15 -6 33 -6 57 3 19 8 47 16 63 19 32 8 34
20 7 43 -11 10 -20 25 -20 34 0 9 -9 28 -21 43 -24 31 -68 32 -105 3z m76
-102 c-12 -14 -40 -10 -40 6 0 13 44 29 48 17 2 -5 -1 -15 -8 -23z"/>
<path d="M660 1778 c-11 -12 -20 -25 -20 -30 0 -4 -8 -8 -18 -8 -10 0 -32 -12
-49 -27 -17 -16 -43 -36 -58 -46 -21 -15 -24 -22 -14 -33 6 -8 18 -14 25 -14
16 0 50 -48 41 -57 -4 -3 -2 -14 4 -25 10 -19 12 -18 47 8 20 15 38 28 40 29
10 7 -13 35 -27 31 -20 -6 -53 36 -45 58 12 31 34 25 70 -19 l36 -44 28 21
c24 17 27 24 17 39 -6 10 -15 15 -20 12 -13 -8 -47 27 -47 49 0 38 32 33 71
-11 36 -43 36 -43 63 -26 14 10 26 21 26 25 0 11 -26 31 -32 24 -3 -3 -18 11
-33 30 -33 43 -73 48 -105 14z"/>
<path d="M1651 1727 c-6 -8 -8 -16 -5 -20 10 -9 -28 -58 -42 -53 -6 2 -19 -3
-27 -12 -14 -16 -12 -20 25 -51 32 -27 42 -31 49 -20 5 8 6 22 3 32 -4 12 2
26 15 38 22 21 41 18 41 -6 0 -20 28 -26 45 -9 22 22 20 27 -34 72 -56 47 -55
47 -70 29z"/>
<path d="M1052 1528 c-17 -45 -25 -53 -62 -68 -42 -16 -44 -16 -89 6 l-46 22
-52 -50 -52 -51 23 -46 c23 -43 23 -47 8 -88 -14 -38 -23 -46 -67 -62 l-50
-19 -1 -70 -2 -70 51 -19 c43 -17 54 -26 68 -60 17 -40 17 -42 -6 -91 l-23
-50 48 -47 c48 -47 49 -48 82 -35 18 7 38 18 45 23 8 5 25 4 47 -3 30 -10 35
-16 38 -48 l3 -37 125 0 125 0 3 37 c3 30 8 38 33 47 23 8 39 6 80 -11 l50
-21 49 48 48 47 -23 50 c-23 49 -23 51 -6 91 14 34 25 43 68 60 l51 19 -1 70
-2 70 -50 19 c-44 16 -53 24 -67 62 -15 41 -15 45 8 88 l23 46 -52 51 -52 52
-45 -24 c-44 -23 -46 -23 -89 -6 -38 15 -46 23 -63 67 l-19 51 -69 1 -69 0
-19 -51z m175 -174 c215 -72 251 -367 59 -488 l-42 -26 2 -70 c2 -57 -1 -72
-15 -80 -34 -18 -41 2 -42 131 -1 164 5 194 37 197 36 3 62 19 69 43 9 27 -20
59 -48 53 -25 -4 -57 -39 -57 -60 0 -10 -14 -14 -49 -14 -44 0 -49 3 -55 25
-4 14 -17 32 -31 41 -23 15 -27 15 -50 0 -14 -9 -25 -23 -25 -31 0 -25 38 -55
69 -55 36 0 41 -18 42 -140 1 -180 0 -187 -20 -193 -32 -8 -39 6 -36 76 2 73
2 74 -58 117 -104 75 -139 219 -82 336 60 123 202 182 332 138z m-171 -281
c19 -25 17 -33 -5 -33 -23 0 -54 28 -46 41 10 15 37 10 51 -8z m214 -3 c0 -13
-9 -22 -25 -26 -33 -8 -40 -1 -25 25 14 27 50 28 50 1z m-98 -89 c-3 -20 -6
-92 -6 -161 0 -103 -3 -126 -16 -131 -32 -13 -36 1 -35 119 0 64 -2 137 -5
162 l-6 46 37 0 c37 0 37 0 31 -35z"/>
<path d="M1143 1333 c-23 -8 -13 -23 15 -23 39 -1 102 -32 139 -68 30 -31 49
-70 56 -121 5 -30 27 -41 27 -14 0 70 -74 179 -138 205 -41 16 -85 25 -99 21z"/>
<path d="M1788 1572 c-37 -5 -78 -54 -72 -88 10 -53 55 -97 77 -75 6 6 2 19
-12 37 -20 26 -29 64 -13 64 4 0 20 -20 35 -45 16 -25 33 -45 37 -45 12 0 50
50 50 67 0 26 -28 69 -52 79 -13 5 -35 8 -50 6z m48 -57 c11 -29 -2 -37 -19
-11 -15 23 -16 26 -2 26 9 0 18 -7 21 -15z"/>
<path d="M419 1543 c-7 -16 -24 -42 -37 -60 -23 -31 -23 -32 -3 -42 13 -8 22
-8 26 -1 4 6 18 2 36 -11 17 -12 28 -24 25 -27 -7 -6 13 -32 24 -32 4 0 20 18
35 40 22 32 26 43 16 53 -9 9 -16 9 -30 0 -16 -10 -24 -8 -46 8 l-26 21 27 25
c25 23 26 25 8 38 -28 21 -39 18 -55 -12z"/>
<path d="M1915 1368 c14 -48 17 -68 8 -68 -5 0 -14 14 -20 30 -13 34 -49 52
-75 39 -24 -13 -32 -52 -17 -81 7 -12 14 -25 14 -28 9 -36 19 -60 25 -60 4 0
19 11 34 25 15 14 34 25 42 25 27 0 55 38 48 68 -9 39 -32 72 -50 72 -12 0
-15 -6 -9 -22z m-40 -59 c4 -11 4 -23 1 -26 -8 -9 -36 17 -36 33 0 22 28 16
35 -7z"/>
<path d="M350 1371 c-14 -4 -32 -21 -42 -40 -14 -29 -15 -39 -4 -65 38 -94
166 -60 166 44 0 25 -3 31 -16 26 -9 -3 -18 -6 -20 -6 -2 0 -4 -11 -4 -23 0
-24 -32 -62 -42 -51 -3 3 3 28 13 56 10 29 18 53 16 54 -9 8 -46 11 -67 5z
m20 -45 c0 -3 -5 -17 -11 -33 -8 -21 -12 -24 -19 -13 -9 15 5 50 20 50 6 0 10
-2 10 -4z"/>
<path d="M1962 1175 c-7 -8 -28 -15 -47 -15 -50 0 -75 -31 -59 -74 9 -23 34
-20 34 4 0 14 7 20 23 21 12 0 30 2 40 4 9 2 17 -3 17 -11 0 -8 10 -14 26 -14
19 0 25 4 20 15 -3 10 1 15 12 15 9 0 23 4 31 9 12 8 12 12 2 25 -8 9 -22 16
-32 16 -11 0 -19 5 -19 10 0 15 -33 11 -48 -5z"/>
<path d="M270 1163 c0 -8 -12 -13 -30 -13 -16 0 -30 -3 -30 -6 0 -16 23 -44
35 -44 8 0 15 -6 15 -13 0 -7 9 -13 20 -14 11 -1 20 3 20 8 0 5 25 8 56 7 61
-3 74 7 74 55 0 21 -4 28 -17 25 -9 -2 -15 -7 -14 -12 5 -15 -22 -24 -56 -19
-18 3 -33 12 -36 22 -5 21 -37 24 -37 4z"/>
<path d="M390 1020 c0 -17 -7 -20 -40 -20 -26 0 -43 5 -46 14 -8 21 -44 16
-44 -6 0 -13 -8 -18 -25 -18 -41 0 -29 -40 14 -47 8 -1 17 -6 20 -11 9 -14 41
-10 41 5 0 8 13 13 39 13 53 0 86 27 77 63 -7 31 -36 37 -36 7z"/>
<path d="M1859 1033 c-7 -56 -2 -86 14 -89 10 -1 20 3 23 10 3 8 23 11 62 8
l57 -4 2 36 c1 29 -2 36 -17 36 -10 0 -22 -4 -25 -10 -10 -16 -65 -12 -71 5
-6 15 -43 21 -45 8z"/>
<path d="M2050 995 c-16 -19 -5 -47 17 -43 22 4 29 43 9 51 -8 3 -20 -1 -26
-8z"/>
<path d="M393 898 c1 -6 -23 -19 -53 -28 -56 -17 -60 -23 -45 -67 6 -18 45
-16 45 2 0 19 63 37 70 20 3 -8 12 -10 26 -5 20 8 21 12 11 49 -9 33 -16 41
-34 41 -13 0 -22 -5 -20 -12z"/>
<path d="M1958 880 c-2 -5 -29 -11 -62 -14 -66 -6 -61 -4 -70 -32 -5 -18 2
-29 43 -59 28 -20 50 -41 48 -47 -1 -5 8 -14 20 -18 18 -8 22 -5 27 23 8 43 5
52 -19 53 -25 0 -77 34 -55 35 8 0 23 2 32 4 9 2 19 -3 22 -11 14 -35 56 3 56
50 0 15 -37 29 -42 16z"/>
<path d="M220 834 c-11 -12 -10 -18 3 -32 16 -15 18 -15 34 0 13 14 14 20 3
32 -7 9 -16 16 -20 16 -4 0 -13 -7 -20 -16z"/>
<path d="M438 789 c-9 -5 -19 -28 -22 -52 -4 -25 -13 -52 -20 -62 -12 -16 -15
-16 -63 7 -36 17 -55 21 -66 14 -13 -9 -13 -13 1 -43 13 -26 20 -32 36 -27 29
9 27 9 73 -6 40 -12 42 -14 23 -27 -11 -8 -29 -11 -45 -7 -17 4 -27 2 -31 -9
-6 -16 18 -71 36 -82 13 -8 35 6 35 23 0 17 120 83 132 71 4 -4 15 -4 23 1 13
8 12 16 -9 54 -20 39 -26 43 -41 34 -10 -7 -16 -16 -14 -23 3 -6 -9 -18 -26
-28 -16 -10 -30 -15 -30 -10 0 28 25 89 42 103 20 16 20 16 1 47 -14 24 -22
29 -35 22z"/>
<path d="M1795 703 c-47 -12 -87 -81 -59 -104 17 -14 16 -14 38 29 9 17 23 32
31 32 21 0 19 -10 -10 -52 -29 -43 -31 -54 -9 -62 56 -22 115 15 116 74 2 51
-55 95 -107 83z m53 -114 c-25 -16 -29 -9 -11 22 17 29 18 29 21 8 2 -12 -2
-26 -10 -30z"/>
<path d="M1050 632 c-6 -2 -10 -8 -10 -13 0 -12 197 -12 205 1 3 6 3 10 -2 11
-28 3 -185 3 -193 1z"/>
<path d="M1044 578 c-3 -4 3 -11 13 -15 10 -4 26 -17 36 -30 24 -31 71 -30
100 0 12 13 31 27 41 30 10 4 16 10 12 14 -9 10 -196 11 -202 1z"/>
<path d="M315 384 c-11 -12 -14 -25 -10 -43 15 -59 78 -54 90 8 8 43 -48 67
-80 35z m63 -25 c2 -14 -4 -31 -13 -39 -13 -11 -19 -10 -35 5 -11 10 -16 24
-13 33 15 40 56 40 61 1z"/>
<path d="M998 383 c5 -10 7 -24 5 -30 -3 -7 0 -13 5 -13 8 0 9 19 3 53 0 4 -6
7 -11 7 -7 0 -7 -6 -2 -17z"/>
<path d="M1283 387 c5 -12 1 -17 -13 -17 -25 0 -41 -30 -29 -52 11 -21 70 -22
62 -2 -6 16 -23 19 -23 4 0 -16 -20 -12 -27 6 -3 8 0 21 7 27 10 9 14 9 17 0
8 -21 18 -15 21 12 1 13 -4 27 -10 31 -8 5 -9 2 -5 -9z"/>
<path d="M1362 388 c-17 -17 -15 -63 3 -78 16 -14 65 -6 65 11 0 6 -7 6 -21
-1 -39 -21 -68 32 -33 61 13 10 19 10 36 0 16 -10 19 -10 16 1 -6 17 -50 22
-66 6z"/>
<path d="M688 379 c-2 -6 -2 -26 0 -45 3 -24 9 -34 21 -33 10 0 11 2 4 6 -15
5 -18 50 -4 55 5 2 3 8 -4 15 -9 9 -15 9 -17 2z"/>
<path d="M1118 380 c-9 -28 4 -80 21 -80 13 0 13 2 2 9 -8 5 -12 19 -9 34 5
28 -6 59 -14 37z"/>
<path d="M1657 377 c-7 -22 16 -77 32 -77 10 0 12 3 5 8 -16 11 -26 45 -15 51
5 3 3 11 -4 18 -11 10 -14 10 -18 0z"/>
<path d="M1868 379 c-2 -6 -2 -26 0 -45 3 -23 9 -34 21 -34 12 0 13 2 3 9 -13
8 -13 41 -1 51 4 3 1 10 -6 17 -9 9 -15 9 -17 2z"/>
<path d="M415 343 c10 -44 21 -47 39 -12 19 37 19 39 7 39 -5 0 -12 -12 -16
-27 -7 -26 -8 -26 -15 -8 -4 11 -6 23 -3 28 2 4 -1 7 -7 7 -8 0 -10 -9 -5 -27z"/>
<path d="M484 356 c-11 -28 1 -51 26 -53 l25 -3 -25 12 -25 12 28 4 c21 2 27
8 23 19 -3 8 -6 17 -6 19 0 11 -41 2 -46 -10z m36 -6 c0 -5 -7 -10 -16 -10 -8
0 -12 5 -9 10 3 6 10 10 16 10 5 0 9 -4 9 -10z"/>
<path d="M564 348 c2 -13 -1 -29 -6 -35 -8 -10 -5 -13 9 -13 16 0 19 5 15 31
-3 22 -1 30 7 25 6 -4 11 -2 11 3 0 6 -9 11 -20 11 -15 0 -19 -5 -16 -22z"/>
<path d="M624 359 c-4 -7 4 -20 17 -31 l24 -20 -30 6 c-28 5 -28 5 -7 -6 17
-9 26 -8 35 1 9 9 7 16 -13 32 l-25 20 24 -6 c16 -5 21 -4 17 4 -9 14 -33 14
-42 0z"/>
<path d="M735 335 c0 -19 5 -35 11 -35 13 0 11 63 -2 67 -5 2 -9 -13 -9 -32z"/>
<path d="M779 346 c5 -12 6 -27 4 -33 -3 -7 2 -13 11 -13 12 0 14 5 6 25 -6
15 -6 26 0 30 17 11 32 -7 27 -31 -2 -14 1 -24 7 -24 7 0 12 12 11 27 0 14 6
28 14 31 10 3 13 -3 9 -27 -3 -22 0 -31 9 -31 9 0 12 9 9 28 -2 15 -5 30 -5
33 -1 3 -25 6 -55 6 -51 0 -54 -2 -47 -21z"/>
<path d="M910 360 c0 -5 5 -10 10 -10 6 0 10 5 10 10 0 6 -4 10 -10 10 -5 0
-10 -4 -10 -10z"/>
<path d="M953 343 c1 -19 -3 -28 -13 -28 -8 0 -14 6 -12 13 1 6 -3 12 -9 12
-6 0 -9 -8 -7 -17 2 -12 14 -19 34 -21 29 -3 30 -2 26 33 -5 41 -22 48 -19 8z"/>
<path d="M1045 361 c3 -6 10 -9 15 -6 5 3 11 1 15 -5 3 -5 -3 -10 -14 -10 -14
0 -21 -6 -21 -20 0 -15 7 -20 26 -20 23 0 25 3 22 33 -2 25 -8 33 -27 35 -15
2 -21 0 -16 -7z m30 -41 c-3 -5 -10 -10 -16 -10 -5 0 -9 5 -9 10 0 6 7 10 16
10 8 0 12 -4 9 -10z"/>
<path d="M1164 356 c-15 -38 22 -74 49 -47 7 7 4 8 -10 5 -12 -3 -24 -1 -27 5
-4 6 -2 11 3 11 6 0 11 5 11 11 0 5 -5 7 -12 3 -7 -4 -8 -3 -4 4 10 17 26 15
26 -4 0 -8 4 -13 10 -9 15 9 0 35 -21 35 -11 0 -22 -6 -25 -14z"/>
<path d="M1452 335 c1 -19 6 -35 13 -35 7 0 10 12 7 31 -3 22 -1 30 7 25 6 -4
11 -2 11 3 0 6 -9 11 -20 11 -16 0 -19 -6 -18 -35z"/>
<path d="M1514 356 c-11 -28 1 -51 26 -53 l25 -3 -25 11 -25 12 23 6 c13 3 23
9 23 14 -1 4 -1 12 -1 17 0 16 -40 12 -46 -4z m36 -6 c0 -5 -7 -10 -16 -10 -8
0 -12 5 -9 10 3 6 10 10 16 10 5 0 9 -4 9 -10z"/>
<path d="M1603 364 c23 -7 22 -20 -4 -27 -28 -8 -19 -31 14 -35 23 -3 25 0 23
30 -2 27 -7 33 -27 35 -14 1 -17 0 -6 -3z m17 -44 c0 -5 -4 -10 -10 -10 -5 0
-10 5 -10 10 0 6 5 10 10 10 6 0 10 -4 10 -10z"/>
<path d="M1713 335 c0 -19 5 -35 12 -35 7 0 9 13 7 35 -2 19 -7 35 -11 35 -4
0 -8 -16 -8 -35z"/>
<path d="M1750 358 c1 -7 7 -24 14 -37 l14 -25 16 32 c19 36 20 42 6 42 -5 0
-10 -9 -10 -19 0 -25 -20 -38 -21 -14 -1 10 -1 21 0 26 0 4 -3 7 -9 7 -5 0
-10 -6 -10 -12z"/>
<path d="M1825 335 c0 -19 5 -35 10 -35 7 0 9 15 7 35 -2 19 -7 35 -11 35 -3
0 -6 -16 -6 -35z"/>
<path d="M1916 353 c4 -10 8 -33 8 -50 1 -20 6 -33 14 -33 7 0 11 4 8 9 -3 5
1 25 9 45 18 42 18 46 5 46 -5 0 -10 -9 -10 -20 0 -11 -4 -20 -10 -20 -5 0
-10 9 -10 20 0 11 -5 20 -11 20 -7 0 -8 -7 -3 -17z"/>
<path d="M1000 315 c0 -8 7 -15 15 -15 9 0 12 6 9 15 -4 8 -10 15 -15 15 -5 0
-9 -7 -9 -15z"/>
</g>
</svg>
